<svg xmlns="http://www.w3.org/2000/svg" viewBox="0 0 1200 700" width="1200" height="700"><rect width="1200" height="700" fill="#0d1117"/><rect x="0" y="0" width="1200" height="40" fill="#161b22"/><text x="20" y="26" font-family="monospace" font-size="13" fill="#58a6ff">⚡ Quantum Terminal</text><text x="400" y="26" font-family="monospace" font-size="12" fill="#8b949e">XAUUSD · Live · MT5</text><rect x="1100" y="8" width="80" height="24" rx="4" fill="#238636"/><text x="1113" y="24" font-family="monospace" font-size="11" fill="white">CONNECTED</text><rect x="0" y="40" width="220" height="660" fill="#0d1117"/><rect x="0" y="40" width="220" height="660" fill="#161b22" opacity="0.5"/><text x="15" y="70" font-family="monospace" font-size="11" fill="#58a6ff">WATCHLIST</text><rect x="10" y="80" width="200" height="40" rx="4" fill="#1f6feb" opacity="0.3"/><text x="20" y="97" font-family="monospace" font-size="12" fill="white" font-weight="bold">XAUUSD</text><text x="20" y="112" font-family="monospace" font-size="10" fill="#3fb950">▲ 2347.85 +1.2%</text><rect x="10" y="125" width="200" height="40" rx="4" fill="#0d1117"/><text x="20" y="142" font-family="monospace" font-size="12" fill="#8b949e">NQ</text><text x="20" y="157" font-family="monospace" font-size="10" fill="#3fb950">▲ 19847.25 +0.8%</text><rect x="10" y="170" width="200" height="40" rx="4" fill="#0d1117"/><text x="20" y="187" font-family="monospace" font-size="12" fill="#8b949e">ES</text><text x="20" y="202" font-family="monospace" font-size="10" fill="#f85149">▼ 5234.50 -0.3%</text><text x="15" y="235" font-family="monospace" font-size="11" fill="#58a6ff">ORDER PANEL</text><rect x="10" y="245" width="200" height="30" rx="4" fill="#238636" opacity="0.8"/><text x="70" y="264" font-family="monospace" font-size="12" fill="white" font-weight="bold">BUY</text><rect x="10" y="280" width="200" height="30" rx="4" fill="#da3633" opacity="0.8"/><text x="68" y="299" font-family="monospace" font-size="12" fill="white" font-weight="bold">SELL</text><text x="15" y="330" font-family="monospace" font-size="10" fill="#8b949e">Size: 0.10 lot</text><text x="15" y="348" font-family="monospace" font-size="10" fill="#8b949e">SL: 2330.00</text><text x="15" y="366" font-family="monospace" font-size="10" fill="#8b949e">TP: 2380.00</text><rect x="220" y="40" width="980" height="500" fill="#0d1117"/><polyline points="220,480 280,460 340,440 380,450 420,420 460,400 500,380 540,360 580,370 620,340 660,300 700,280 740,260 780,240 820,250 860,220 900,200 940,210 980,180 1020,160 1060,140 1100,150 1140,130 1180,120 1200,110" stroke="#58a6ff" stroke-width="2" fill="none" opacity="0.8"/><polyline points="220,500 280,490 340,480 380,495 420,470 460,455 500,440 540,430 580,445 620,420 660,395 700,380 740,365 780,350 820,360 860,340 900,325 940,335 980,310 1020,295 1060,275 1100,285 1140,265 1180,255" stroke="#3fb950" stroke-width="1.5" fill="none" opacity="0.6" stroke-dasharray="5,3"/><polyline points="220,460 280,475 340,455 380,440 420,460 460,445 500,430 540,450 580,435 620,410 660,385 700,365 740,350 780,335 820,345 860,315 900,295 940,305 980,280 1020,270 1060,250 1100,260 1140,240 1180,230" stroke="#f78166" stroke-width="1.5" fill="none" opacity="0.5" stroke-dasharray="3,3"/><line x1="220" y1="40" x2="220" y2="540" stroke="#30363d" stroke-width="1"/><line x1="220" y1="540" x2="1200" y2="540" stroke="#30363d" stroke-width="1"/><text x="230" y="560" font-family="monospace" font-size="10" fill="#8b949e">09:00</text><text x="430" y="560" font-family="monospace" font-size="10" fill="#8b949e">11:00</text><text x="630" y="560" font-family="monospace" font-size="10" fill="#8b949e">13:00</text><text x="830" y="560" font-family="monospace" font-size="10" fill="#8b949e">15:00</text><text x="1030" y="560" font-family="monospace" font-size="10" fill="#8b949e">17:00</text><rect x="1050" y="55" width="140" height="90" rx="4" fill="#161b22" stroke="#30363d" stroke-width="1"/><text x="1060" y="72" font-family="monospace" font-size="10" fill="#8b949e">PRICE</text><text x="1060" y="90" font-family="monospace" font-size="16" fill="#3fb950" font-weight="bold">2347.85</text><text x="1060" y="108" font-family="monospace" font-size="10" fill="#3fb950">+27.45 (+1.18%)</text><text x="1060" y="126" font-family="monospace" font-size="9" fill="#8b949e">Vol: 48,291</text><rect x="220" y="540" width="980" height="160" fill="#0d1117"/><text x="230" y="560" font-family="monospace" font-size="11" fill="#58a6ff">VOLATILITY BANDS (GBM Model)</text><rect x="230" y="565" width="940" height="8" rx="2" fill="#1f6feb" opacity="0.3"/><rect x="230" y="565" width="650" height="8" rx="2" fill="#1f6feb" opacity="0.7"/><rect x="230" y="580" width="940" height="8" rx="2" fill="#238636" opacity="0.3"/><rect x="230" y="580" width="820" height="8" rx="2" fill="#238636" opacity="0.6"/><text x="230" y="610" font-family="monospace" font-size="10" fill="#8b949e">Upper Band: 2395.20  ·  Lower Band: 2298.40  ·  σ(30d): 18.4%</text><text x="230" y="628" font-family="monospace" font-size="10" fill="#58a6ff">● GBM Cone</text><text x="320" y="628" font-family="monospace" font-size="10" fill="#3fb950">● MJD Forecast</text><text x="430" y="628" font-family="monospace" font-size="10" fill="#f78166">● Bates Model</text><text x="20" y="680" font-family="monospace" font-size="9" fill="#30363d">github.com/wJubran/QuantumTerminal</text></svg>
