<svg xmlns="http://www.w3.org/2000/svg" viewBox="0 0 1200 700" width="1200" height="700"><rect width="1200" height="700" fill="#0d1117"/><rect x="0" y="0" width="1200" height="40" fill="#161b22"/><text x="20" y="26" font-family="monospace" font-size="13" fill="#58a6ff">⚡ Quantum Terminal</text><text x="400" y="26" font-family="monospace" font-size="12" fill="#8b949e">Volatility Cones · XAUUSD · 30-Day Window</text><rect x="1100" y="8" width="80" height="24" rx="4" fill="#1f6feb"/><text x="1115" y="24" font-family="monospace" font-size="11" fill="white">ANALYSIS</text><rect x="0" y="40" width="200" height="660" fill="#161b22" opacity="0.6"/><text x="15" y="70" font-family="monospace" font-size="11" fill="#58a6ff">PARAMETERS</text><text x="15" y="95" font-family="monospace" font-size="10" fill="#8b949e">Model</text><rect x="10" y="100" width="180" height="25" rx="3" fill="#21262d" stroke="#30363d" stroke-width="1"/><text x="20" y="116" font-family="monospace" font-size="10" fill="#c9d1d9">GBM + MJD + Bates</text><text x="15" y="145" font-family="monospace" font-size="10" fill="#8b949e">Lookback</text><rect x="10" y="150" width="180" height="25" rx="3" fill="#21262d" stroke="#30363d" stroke-width="1"/><text x="20" y="166" font-family="monospace" font-size="10" fill="#c9d1d9">30 Days</text><text x="15" y="195" font-family="monospace" font-size="10" fill="#8b949e">Confidence</text><rect x="10" y="200" width="180" height="25" rx="3" fill="#21262d" stroke="#30363d" stroke-width="1"/><text x="20" y="216" font-family="monospace" font-size="10" fill="#c9d1d9">68% / 95% / 99%</text><text x="15" y="255" font-family="monospace" font-size="11" fill="#58a6ff">STATISTICS</text><rect x="10" y="265" width="180" height="60" rx="3" fill="#21262d" stroke="#30363d" stroke-width="1"/><text x="20" y="282" font-family="monospace" font-size="10" fill="#8b949e">σ Realized Vol</text><text x="20" y="300" font-family="monospace" font-size="15" fill="#f0883e" font-weight="bold">18.42%</text><text x="20" y="316" font-family="monospace" font-size="9" fill="#8b949e">annualized</text><rect x="10" y="335" width="180" height="60" rx="3" fill="#21262d" stroke="#30363d" stroke-width="1"/><text x="20" y="352" font-family="monospace" font-size="10" fill="#8b949e">μ Drift (daily)</text><text x="20" y="370" font-family="monospace" font-size="15" fill="#3fb950" font-weight="bold">+0.048%</text><text x="20" y="386" font-family="monospace" font-size="9" fill="#8b949e">mean return</text><rect x="10" y="405" width="180" height="60" rx="3" fill="#21262d" stroke="#30363d" stroke-width="1"/><text x="20" y="422" font-family="monospace" font-size="10" fill="#8b949e">λ Jump Intensity</text><text x="20" y="440" font-family="monospace" font-size="15" fill="#f85149" font-weight="bold">2.3 / mo</text><text x="20" y="456" font-family="monospace" font-size="9" fill="#8b949e">MJD estimate</text><rect x="200" y="40" width="1000" height="620" fill="#0d1117"/><line x1="200" y1="40" x2="200" y2="660" stroke="#30363d" stroke-width="1"/><line x1="200" y1="660" x2="1200" y2="660" stroke="#30363d" stroke-width="1"/><line x1="200" y1="40" x2="1200" y2="40" stroke="#30363d" stroke-width="0.5" opacity="0.3"/><line x1="200" y1="200" x2="1200" y2="200" stroke="#30363d" stroke-width="0.5" opacity="0.3"/><line x1="200" y1="350" x2="1200" y2="350" stroke="#30363d" stroke-width="0.5" opacity="0.3"/><line x1="200" y1="510" x2="1200" y2="510" stroke="#30363d" stroke-width="0.5" opacity="0.3"/><polygon points="700,350 750,180 850,90 950,55 1050,42 1150,38 1150,660 1050,650 950,630 850,590 750,520 700,350" fill="#1f6feb" opacity="0.08"/><polygon points="700,350 750,240 850,170 950,130 1050,110 1150,105 1150,660 1050,640 950,600 850,540 750,440 700,350" fill="#1f6feb" opacity="0.12"/><polygon points="700,350 750,280 850,230 950,200 1050,185 1150,180 1150,660 1050,630 950,590 850,520 750,400 700,350" fill="#1f6feb" opacity="0.18"/><line x1="200" y1="350" x2="700" y2="350" stroke="#c9d1d9" stroke-width="1.5" opacity="0.4"/><polyline points="200,350 250,345 300,338 350,342 400,335 450,328 500,333 550,325 600,318 650,322 700,350" stroke="#c9d1d9" stroke-width="2" fill="none"/><line x1="700" y1="350" x2="1150" y2="200" stroke="#58a6ff" stroke-width="2" stroke-dasharray="6,3" opacity="0.8"/><line x1="700" y1="350" x2="1150" y2="390" stroke="#f85149" stroke-width="1.5" stroke-dasharray="4,3" opacity="0.6"/><circle cx="700" cy="350" r="6" fill="#58a6ff"/><text x="715" y="345" font-family="monospace" font-size="11" fill="#58a6ff">NOW</text><text x="715" y="358" font-family="monospace" font-size="10" fill="#8b949e">2347.85</text><rect x="950" y="55" width="230" height="130" rx="4" fill="#161b22" stroke="#30363d" stroke-width="1"/><text x="965" y="75" font-family="monospace" font-size="11" fill="#58a6ff">CONE LEGEND</text><line x1="965" y1="95" x2="985" y2="95" stroke="#1f6feb" stroke-width="8" opacity="0.2"/><text x="990" y="99" font-family="monospace" font-size="10" fill="#8b949e">99% CI Band</text><line x1="965" y1="115" x2="985" y2="115" stroke="#1f6feb" stroke-width="8" opacity="0.3"/><text x="990" y="119" font-family="monospace" font-size="10" fill="#8b949e">95% CI Band</text><line x1="965" y1="135" x2="985" y2="135" stroke="#1f6feb" stroke-width="8" opacity="0.5"/><text x="990" y="139" font-family="monospace" font-size="10" fill="#8b949e">68% CI Band</text><line x1="965" y1="155" x2="985" y2="155" stroke="#58a6ff" stroke-width="2" stroke-dasharray="6,3"/><text x="990" y="159" font-family="monospace" font-size="10" fill="#8b949e">GBM Forecast</text><line x1="965" y1="173" x2="985" y2="173" stroke="#f85149" stroke-width="2" stroke-dasharray="4,3" opacity="0.8"/><text x="990" y="177" font-family="monospace" font-size="10" fill="#8b949e">MJD Downside</text><text x="215" y="685" font-family="monospace" font-size="10" fill="#8b949e">-30d</text><text x="415" y="685" font-family="monospace" font-size="10" fill="#8b949e">-20d</text><text x="615" y="685" font-family="monospace" font-size="10" fill="#8b949e">TODAY</text><text x="815" y="685" font-family="monospace" font-size="10" fill="#8b949e">+10d</text><text x="1015" y="685" font-family="monospace" font-size="10" fill="#8b949e">+20d</text><text x="1150" y="685" font-family="monospace" font-size="10" fill="#8b949e">+30d</text><text x="20" y="680" font-family="monospace" font-size="9" fill="#30363d">github.com/wJubran/QuantumTerminal</text></svg>
